<svg xmlns="http://www.w3.org/2000/svg" viewBox="0 0 812.6 152.2"><g data-name="L2"><path d="M71.3 53.5 81.1 0h20.4L83.4 85.3H62L50.7 36.7 39.4 85.3H18.2L0 0h20.5l9.7 53.5L42 0h17.4Zm104.3 0L185.4 0h20.4l-18.1 85.3h-21.3l-11.5-48.6-11.2 48.6h-21.2L104.3 0h20.5l9.7 53.5L146.3 0h17.4Zm104.3 0L289.7 0H310l-18 85.3h-21.4l-11.4-48.6L248 85.3h-21.2L208.6 0H229l9.8 53.5L250.6 0H268Zm109.5 31.8H369V49.7h-30.3v35.6H318V0h20.6v33.9H369V0h20.5ZM452 69.4h-28.2l-5 16h-22L428.1 0h19.4L479 85.3h-22Zm-23.3-15.9H447l-9.2-29.6Zm116.5-37.6h-25.7v69.4H499V16h-25.1V0h71.3Zm4.8 50.3a11 11 0 0 1 7.8 2.7 9.7 9.7 0 0 1 0 14.3A11 11 0 0 1 550 86a11 11 0 0 1-7.8-2.8 9.7 9.7 0 0 1 0-14.2 11 11 0 0 1 7.8-2.8m28.8 21.3 29.1-80.1 25.9 9.3A40 40 0 0 1 651 28.5a36 36 0 0 1 8.3 18.4 44 44 0 0 1-2.3 21.5l-1.4 3.7A44 44 0 0 1 644 90a36 36 0 0 1-18.1 8.9 40 40 0 0 1-20.7-1.9Zm43-58.2-18.3 50.4 6.7 2.4q8.3 3 15-1.2t10.8-16l1.3-3.5q4.2-11.6 1.9-19.1t-10.9-10.6Zm92 68.8-30.4-11-7 19.1 35.9 13-5.4 15-55.3-20.1 29.2-80.2L736.2 54l-5.5 15-36-13.2-6.1 17 30.4 11Zm40 28.4L791 74l21.6 7.9-56.2 70.3-21.1-7.7 2.4-89.9 21.4 7.8Z" data-name="L1"/></g></svg>