<svg xmlns="http://www.w3.org/2000/svg" viewBox="0 0 411.2 419.4"><defs><style>.c1{fill:#f7a9a0}.c2{fill:#ebebeb}.c3{fill:#263238}.c4{fill:#fff}.c5{opacity:.1}.c6{fill:#ffc727}.c7{fill:#37474f}.c8{fill:#455a64}.c9{fill:#ff99ba}.c11{opacity:.6}.c12{fill:#d3766a}</style></defs><g id="L2" data-name="Layer 2"><g id="C2" data-name="C2"><path class="c1" d="m262 312.9-24.1 42.6a244 244 0 0 0-8.4 20.3 7 7 0 0 0-.6 3c1.8 3 69.6 35.8 72.3 36.2s4-7.4 2.4-10.8-22-27.6-22-27.6l23.7-42.8Z"/><path class="c2" d="M300 414.8c-2.7-.4-69.3-33-71.1-36a7 7 0 0 1 .6-3 248 248 0 0 1 8.4-20.3s4-7.5 5.6-10l43.1 22.2-5 8.9s19.2 24 20.9 27.3.4 11.2-2.4 10.9"/><path class="c3" d="M301.3 413.8c-2.7-.4-70.2-35.2-72-38.1-.6-1.1 3.8-11.3 9.6-23.3l.2-.4 43.8 22-.4.7s19.9 24.8 21.5 28.3 0 11.3-2.7 10.8"/><path class="c4" d="M302 410.8a2036 2036 0 0 0-68.8-35 2032 2032 0 0 0 68.7 35m-15.8-34.1c-4-3.2-9.9-5.3-15-3.9l.1.4a70 70 0 0 1 14.6 4 .3.3 0 0 0 .3-.5m2.2 3.6c-4-3.2-9.8-5.3-14.9-3.9-.2 0-.1.4 0 .4a70 70 0 0 1 14.6 4 .3.3 0 0 0 .3-.5m2.3 3.6c-4-3.1-10-5.3-15-3.8v.3a71 71 0 0 1 14.7 4 .3.3 0 0 0 .3-.5m-44.2-18.6c-3.7-5-11.4.6-7.8 5.6s11.4-.6 7.8-5.6"/><path class="c5" d="m285.5 378.4 4.8 30.3c6.2 3 10.4 5 11 5.1 2.8.5 4.2-7.4 2.7-10.8a369 369 0 0 0-18.5-24.6"/><path class="c6" d="M303.6 412c1 1-1.4 5-2.4 4.8s-74.5-38.3-75.6-39.3 1.7-5.1 3.2-4.6 74.8 39 74.8 39"/><path class="c3" d="m243.4 341.5 48.6 25.9S353.3 280 354.5 257c1.7-31.7-25.4-132.3-25.4-132.3l-43.1-.3s17.5 103.5 16 121.1c-.6 9.3-58.6 95.9-58.6 95.9"/><path class="c7" d="M296.2 357.4a564 564 0 0 0-43-23.5 843 843 0 0 0 43 23.5M308 223.5a1338 1338 0 0 0-15-90.6l-1.2-5.5a.2.2 0 0 0-.4.1l7.8 44.7c3.8 22.3 4.7 30 6.8 45l1.5 11a100 100 0 0 1 1 11.6 30 30 0 0 1-1.8 10.8 63 63 0 0 1-5 9.8c-7.7 13.2-42.7 71-43.6 72.6q0 .2.1.1c8.4-13 34.5-54.6 42.4-68 3.6-6 7.6-12.2 8.8-19.2 1.2-7.4-.3-15-1.3-22.4"/><path class="c1" d="m295.7 341.5-.5 49.2c.2 9.5.6 17.7 1.2 22a7 7 0 0 0 .8 3c3 1.8 78.2 2 80.9 1s.3-8.4-2.6-10.7-31.8-15.3-31.8-15.3v-49.2Z"/><path class="c2" d="m295.3 380.6-.1 10.1c.2 9.5.6 17.7 1.2 22l.8 3c3 1.8 78.2 2 80.9 1s.3-8.4-2.6-10.7-31.8-15.3-31.8-15.3v-10.3Z"/><path class="c3" d="M378.1 416.6c-2.7.9-78.6-.5-81.4-2.3-1.1-.7-1.6-11.8-1.7-25.2v-.4l49 .3v.8s28.8 13.5 31.7 16 5 10 2.4 10.8"/><path class="c4" d="M377.3 413.7a2027 2027 0 0 0-77.1-1 2041 2041 0 0 0 77.1 1M348 390c-5-1-11.2-.4-15.1 3.2q-.1.1.2.3a71 71 0 0 1 14.9-2.8.3.3 0 0 0 0-.7m3.6 2.3c-5-1-11.2-.4-15 3.2q-.2.2.1.3a71 71 0 0 1 14.9-2.9.3.3 0 0 0 0-.6m3.6 2.3c-5-1-11.2-.4-15 3.1q-.2.3.1.3a71 71 0 0 1 14.9-2.8.3.3 0 0 0 0-.6"/><path class="c6" d="M379.3 414c1.4.5 1 5 0 5.4s-83.7-1.5-85.1-1.8-.8-5.4.8-5.6 84.3 2 84.3 2"/><path class="c4" d="M307.4 397.4c-5.5-2.8-10 5.6-4.5 8.5s10-5.6 4.5-8.5"/><path class="c3" d="M328.6 124.7c-.3.9-15.8 43.4-17.3 44-1.6.9 34.3 61.2 36.4 89.2 1.4 18-1.3 119.4-1.3 119.4H294s2.5-91.2 3.7-120.1c.5-11.2-36-67-36.5-101.8-.1-11 7.7-31 7.7-31Z"/><path class="c7" d="M298 256.4q-.2-.7-.5 0c-1.2 15.6-1.4 31.1-2.2 46.8s-.3 19.4-1 35c-.4 8.8 0 17.7-.2 26.5a.1.1 0 0 0 .2 0c1.6-15.6 3.6-99.4 3.6-108.3m49.8 2.2a78 78 0 0 0-1-11.5 57 57 0 0 0-3.3-10.8q-4.5-11-9.6-21.7L323.6 193l-6-12-6.3-12a.1.1 0 0 0-.2 0l10 21.7 10 21.8c3.3 7.3 6.6 14.2 9.6 21.5a72 72 0 0 1 3.8 10.6A63 63 0 0 1 346 256q.6 13.5 1.6 27h.2q.4-12.3 0-24.4m-5.2 108.2a474 474 0 0 0-45.8.2 726 726 0 0 0 45.8-.2"/><path class="c7" d="M318.6 166.5a99 99 0 0 0-16.4 5.7v.3q8.4-2.4 16.6-5.4a.4.4 0 0 0-.2-.6m5.3-36q-.1-.4-.4 0A177 177 0 0 1 321 148c-.6 2.7-4.3 17.5-9 16q-1-.6-1-2.4a18 18 0 0 1 1.1-4.5q1.3-4.6 2.2-9.4a87 87 0 0 0 1.6-17.8h-.3a162 162 0 0 1-4 24.4c-1 3.9-3.5 9.6.5 10.6s7.8-8.6 8.6-11.2a90 90 0 0 0 3.3-23.2"/><path class="c7" d="m312 164.3-1.3 3a7 7 0 0 0-.7 2.5q0 .3.3.1a9 9 0 0 0 1.4-2.4l1.3-2.7a.5.5 0 0 0-1-.5m-8.7 107.6c.3-7.5 1-15.3-1.4-22.5a74 74 0 0 0-4.7-10.2l-5.4-10.6q-10.6-21.3-19.5-43.3a92 92 0 0 1-6.5-21.9 68 68 0 0 1 1.5-23.8l1.2-5.9a79 79 0 0 0-4 22.8 64 64 0 0 0 4 21.8q3.9 10.9 8.7 21.5 4.8 11 10 21.8 5.2 10.7 10.7 21.3a38 38 0 0 1 4 10.7 56 56 0 0 1 .5 11.8c-.6 16.5-2 71.5-2.3 88v6.2q.1.3.2 0c1-16.4 2.4-71.3 3-87.7"/><path class="c7" d="M291.5 135.4h-.2c-.6 4.5-1 9.3-3.2 13.4-2 3.8-5.5 6.2-9.3 8l-6.8 2.4c-.2 0-.2.4 0 .3a36 36 0 0 0 12.6-4.3c4-2.7 6-6.8 6.7-11.5a40 40 0 0 0 .2-8.3"/><path class="c1" d="M309.9 66.6c7.9 6.6 32.4 21.4 43.9 20.5 7.7-.5 28.2-16.8 32.2-22.6 1.6-2.3-15-18.8-17.6-17.4-3 1.6-16.2 17.6-18.4 18s-23.1-4.8-34.9-6.3c-7-1-8.8 4.8-5.2 7.8"/><path class="c1" d="M381.4 69.3c4.3-3.1 16-17 17.7-20.3s5.9-13 3.5-14.6-3.8 1.2-3.8 1.2 1.3-4.8-1.4-5.7c-2.1-.8-4.4 3-4.4 3s1.1-5.3-1.6-6c-2.6-.5-4 4.2-4 4.2s.5-4.5-2.1-4.6c-3 0-4 7.8-6.1 11.3L362 53.1Z"/><path class="c3" d="M387.2 31c-1.2 5.8-2 8.1-5.5 12.6q0 .2.1.1c4-4 5-6.8 5.7-12.8q0-.3-.3 0M393 33c-1.3 6-2.7 8.4-6.2 13.3q0 .2.2.1c3.7-4.5 5.7-7.4 6.1-13.5q0-.4-.2 0m5.7 3c-1.6 5.7-3 8.6-6.9 13l.2.1c4.4-4 6.2-7.7 6.9-13q0-.6-.2-.1"/><path class="c1" d="M362 53s3.5-6 5-9 4.4-11.7 7.2-12.3c3.1-.6 3 8 .4 13.2 0 0 7 6.6 4.8 11.7-.5 1.2-5 5.5-6.4 5.6Z"/><path class="c3" d="M374.6 45.6c2.8 2.4 5.4 6.6 4.8 10.3h.2c1.2-3.9-1.8-8.7-4.5-10.8-.5-.3-1.3-.2-.6.5"/><path class="c5" d="M392.4 27.5 380 55.6l-4 9.2-6.2 14c-6.2 4.4-12.5 8-16 8.3-11.6.9-36-13.9-44-20.5-3.5-3-1.7-8.7 5.3-7.8 11.8 1.6 32.6 6.8 34.9 6.4 1.4-.3 7.3-6.9 12.1-12V53l4.8-9c1.5-3 4.5-11.8 7.3-12.4 2.3-.4 2.9 4.4 1.8 9l3.2-3c2.2-3.4 3-11.3 6.1-11.2 2.6 0 2 4.6 2 4.6s1.5-4.7 4-4.2z"/><path class="c8" d="m341.7 87.8 8-23.3s-23.4-5.6-35-6.4c-9.8-.7-12.5 6-2.1 13.1 9.8 6.7 29 16.6 29 16.6"/><path class="c7" d="m313.5 58-3.8 11-1-.9 3.6-10zm5.5.5-4.8 13.8 1 .6 5-14.3Zm6.6 1-5.8 16.3 1 .6 6-16.7Zm6.4 1.2-6.5 18.4 1 .6 6.6-18.8Zm6.5 1.3-7.2 20.3 1 .6 7.3-20.7Zm6.3 1.4-7.7 22 1 .6 7.9-22.3Z"/><path class="c3" d="m343.3 65.2-1.7 4.1-1.6 4.4-2.7 8.7 3.3-8.5 1.5-4.3z"/><path class="c5" d="m344 81-2.3 6.9s-19.3-10-29.1-16.7c-9.1-6.2-8.2-12.1-1.2-13Z"/><path class="c8" d="m334.9 140.3-72.5-5.7c.2-1.3 21.3-62.5 38.8-75.6 6-4.5 16.3 0 17.6 1.3 12.1 11.6 17.1 79.3 16 80"/><path class="c7" d="m321.8 64.4-24.4-1.9 1-1 22.6 1.7zm2.4 5.6-31-2.4-.7 1 32.1 2.6Zm2.1 6.7-37.1-3-.7 1.2 38.1 3q0-.7-.3-1.3Zm1.7 6.6L285.6 80l-.6 1.1 43.2 3.3zm1.4 6.6-47-3.6-.6 1 47.8 3.8zm1.2 6.6-51.3-4-.5 1.1 52 4zm1 6.6-55.2-4.3-.5 1.1 55.8 4.4zm.9 6.6-58.9-4.6-.4 1.1 59.4 4.6zm.8 6.6-62.3-4.9-.4 1.1 62.8 5Zm.6 6.5-65.4-5-.4 1L334 124zm.6 6.6-68.4-5.3-.4 1.1 68.9 5.3zm.4 6.5-71.1-5.5-.4 1.1 71.6 5.6z"/><path class="c1" d="M316.5 70.2c-4 .7-10.3-5.6-12.7-10.5-.2-.4.5-3.8 1.2-8q.6-4 .8-8.1c0-.6 16.4 4.8 16.4 4.8a42 42 0 0 0-2.1 10.1v1.3c.3 2 .2 9.7-3.6 10.4"/><path class="c3" d="M306.8 43.7c.6 4.5 2.8 15.4 11.6 16h1.8v-.1l-.1-1.1a43 43 0 0 1 2.1-10.1s-11.8-3.9-15.4-4.7"/><path class="c1" d="M301.8 25.9c-1.3 6 3.2 22.7 7.7 26.1 6.5 5 16.5 4.7 20.5-3 4-7.4-2.3-29.1-7.3-32.1-7.3-4.5-19 .1-21 9"/><path class="c3" d="M304.4 43.4q5.2-1.2 4.3-11.3c-.9-10.1 0-9.2 3-10.6s6.9.9 8.5.5.8-3 2.1-3.2c.7-.2 3 1.5 5.3 5.8 0 0-2.1-12.4-15.4-9.3-12.4 2.8-11.7 13-11.2 16a87 87 0 0 0 3.4 12.1"/><path class="c1" d="M308.3 39.5s-4.4-5-6.7-3.4 1.3 9.2 4.4 10a3 3 0 0 0 3.8-2Z"/><path class="c3" d="M302.7 38.3c2.1.6 3.4 2.4 4.4 4.3a1.6 1.6 0 0 0-2.5-.2v.1a2 2 0 0 1 2.1.5l1.1 1.5q.4.2.4-.2c-.3-2.6-2.7-6-5.5-6m23.5-5.2c.3 1.1.8 2.4 2 2.5-1.3.2-2-1.5-2-2.6"/><path class="c3" d="M326.9 31.7c1.7-.6 2.8 3 1.2 3.5s-2.7-3-1.2-3.5m-9.6 2.5h1.5a3 3 0 0 0 1.6-.3 1 1 0 0 0 .2-1 2 2 0 0 0-1.9-.8 3 3 0 0 0-2 .6 1 1 0 0 0 .6 1.5m9.9-5.3-1.5-.2a3 3 0 0 1-1.6-.5 1 1 0 0 1 0-1 2 2 0 0 1 1.8-.6 3 3 0 0 1 2 .8.9.9 0 0 1-.7 1.5M321.4 46a2 2 0 0 0 1.2.4l1.1-.6a2 2 0 0 1-1.2 1 1 1 0 0 1-1.1-.8M317 35.6l1-.4 1-.1 1 .2.8.8.5.5h-.7l-1.4.3-1.2.7a2 2 0 0 1 1-1.2l1.5-.5-.2.6a3 3 0 0 0-1.4-.8z"/><path class="c3" d="m319.5 38 1.3-.8c0-.1.4-.5.3-.6l-.4-.7.6.7-.4.7a3 3 0 0 1-1.4.7m2.7 5.6a10 10 0 0 1 4.4-1.5l.2-.4-.8-2.4c.4 0 2.2.4 2 0a60 60 0 0 0-4.6-11.1.1.1 0 0 0-.2 0c1 3.6 2.7 7 3.8 10.5h-2s1 2.4 1 2.8a6 6 0 0 0-4 1.7c-.3.4-.4.9.2.4"/><path class="c3" d="M324.3 41.9s.3 2.2-.7 3c-1.3 1-2.6-.4-1.5-1.9a5 5 0 0 1 2.2-1.1"/><path class="c9" d="M324.3 43.2a3 3 0 0 1-.7 1.8 1 1 0 0 1-1.7-.2c1-1.5 1.8-1.7 2.4-1.6"/><path class="c7" d="m363.7 41.4-37.4-2.7.1-8.5 37.6-1.1z"/><path class="c8" d="m384.6 45.3-37.4-3.8.3-13.3L385 26z"/><path class="c7" d="m402.4 50.2-28.4-5 .4-19.5 28.6-3.8z"/><path class="c6" d="M404.6 36c-.2 7.2-1.2 13-2.2 13s-1.8-5.9-1.7-13 1.2-12.9 2.2-12.8 1.8 5.8 1.7 12.9"/><path class="c1" d="M300.3 73.7c11 13.7 41.5 37.3 48.8 35 13.6-4.3 21.6-41.4 23.9-48.5 1-3-25.6-7.4-26.7-4.1-1 2.8-3.8 22.4-6.3 23-1 .1-15.2-7-31.6-12.2-12.5-4-11.4 2.7-8 6.8"/><path class="c1" d="M345 62.1s1-3 .9-10.7c0-6 4.1-20.1 19.7-26.7 6-2.5 10.3.6 4.6 4.3-4 2.6-7 4-8.2 5.3 0 0 7.4.7 9.5 4.4a78 78 0 0 1 4.8 10l-1.8 1a9 9 0 0 1-1.2 9.6l-1.8 6.3Z"/><path class="c1" d="M347.5 46.3a47 47 0 0 1 11.3-10.4c5.5-3.3 17-8 19.4-3.9 1.8 3-2.5 5.2-2.5 5.2s5.2-1 6.2 2.1c.8 2.8-2.6 4.3-2.6 4.3s3.3 0 3.6 2.8c.4 3.5-6.5 3-9 6.8-.7.8-26.4-7-26.4-7"/><path class="c3" d="M361.3 42.3a26 26 0 0 1 14.3-5.1q.2 0 0 0a63 63 0 0 0-14.3 5.1m3.4 5.5a29 29 0 0 1 14.7-4.2 68 68 0 0 0-14.7 4.2"/><path class="c8" d="m327.3 99.7 12-21.5s-21.8-9.8-33.1-12.7c-9.5-2.5-13.4 3.7-4.5 12.5 8.5 8.4 25.6 21.7 25.6 21.7"/><path class="c7" d="m305.3 65.3-5.7 10.4-.8-1 5.3-9.6zm6.4 1.8-7.4 13.4-.9-.8 7.2-13Zm6.2 2.2L309.3 85l-.9-.8 8.4-15.2Zm6.1 2.4-9.6 17.5-1-.7 9.5-17.2Zm6 2.5-10.6 19.2-.8-.7 10.4-19Zm6 2.5-11.4 20.8-1-.7L335 76.3Z"/><path class="c3" d="m333 77.7-2.4 3.8-2.4 4-4.3 8q0 .2.1 0l4.8-7.7 2.2-4 2.1-4M304.9 81c5.6 4.2 11.6 9.3 17 13.8l5.5 4.7h-.2l1.4-1.9-1.2 2.2h-.1q-12-8.4-22.4-18.8"/><path class="c3" d="M305.5 82.6a9 9 0 0 1 3.8 2.2 5 5 0 0 1-3.9-2.2"/></g><g id="qm" data-name="qms"><path class="c6" d="M228.4 237v37.2c0 16-12 28-28 28a28 28 0 0 1-28.1-28v-59.5c0-.5.6-.5.6-1.1-.6-.6-.6-.6-.6-1.2 0-14.9 13.2-28 28-28a64.6 64.6 0 0 0 65.3-64.2c0-36-29.2-64-65.2-64a63 63 0 0 0-55 31.4 28 28 0 0 1-39 10.3 28 28 0 0 1-9.7-38.3A120 120 0 0 1 200.4 0c66.4 0 120.8 53.8 120.8 120.2 0 56.7-39.5 104.2-92.8 116.8m0 125.4v10.3c0 16-12 28-28 28a28 28 0 0 1-28.1-28v-10.3c0-15.5 13.2-28 28-28a27.7 27.7 0 0 1 28.1 28"/><path d="M211 12.3c48-6 91.4 43 99.2 87.1a94 94 0 0 1 1.4 15.2l-.2 5c-11.7-47.4-50-98.8-100.4-107.3" fill="#fff" opacity=".6"/><path class="c6" d="m332.4 304.7-9.3 16.9a14 14 0 0 1-19.7 5.7 14.5 14.5 0 0 1-5.7-19.7l14.8-27c.2-.3.4-.1.6-.4v-.7a15 15 0 0 1 19.7-5.7c16.4 9 36.7 3.3 45.6-12.8 9-16.4 2.7-36.4-13.6-45.4a33 33 0 0 0-32.8.6 14.6 14.6 0 0 1-20.2-5 14.4 14.4 0 0 1 5.1-19.8 62 62 0 0 1 61.8-1.2 62.5 62.5 0 0 1 24.9 84.7 62 62 0 0 1-71.2 29.8m-31.2 56.9-2.6 4.6a14 14 0 0 1-19.7 5.8 14.5 14.5 0 0 1-5.8-19.7l2.6-4.7a14.7 14.7 0 0 1 19.7-5.7 14.4 14.4 0 0 1 5.8 19.7"/><g class="c11"><path class="c4" d="m332.4 304.7-9.3 16.9a14 14 0 0 1-19.7 5.7 14.5 14.5 0 0 1-5.7-19.7l14.8-27c.2-.3.4-.1.6-.4v-.7a15 15 0 0 1 19.7-5.7c16.4 9 36.7 3.3 45.6-12.8 9-16.4 2.7-36.4-13.6-45.4a33 33 0 0 0-32.8.6 14.6 14.6 0 0 1-20.2-5 14.4 14.4 0 0 1 5.1-19.8 62 62 0 0 1 61.8-1.2 62.5 62.5 0 0 1 24.9 84.7 62 62 0 0 1-71.2 29.8m-31.2 56.9-2.6 4.6a14 14 0 0 1-19.7 5.8 14.5 14.5 0 0 1-5.8-19.7l2.6-4.7a14.7 14.7 0 0 1 19.7-5.7 14.4 14.4 0 0 1 5.8 19.7"/></g><path class="c6" d="M30.6 226.7 25 209.5a13.4 13.4 0 0 1 8.7-17.3 13.7 13.7 0 0 1 17.2 8.6l9.2 27.5q-.2.4 0 .7.4 0 .3.4a14 14 0 0 1-8.6 17.3 31.5 31.5 0 0 0-20.3 39.7 31.3 31.3 0 0 0 40 19.6 31 31 0 0 0 20.6-23 14 14 0 0 1 16.4-10.8 13.6 13.6 0 0 1 10.4 16.3A59 59 0 0 1 80.2 332a59 59 0 0 1-74.5-37 58.6 58.6 0 0 1 25-68.3m-19.3-58-1.6-4.8a13.4 13.4 0 0 1 8.7-17.3 13.7 13.7 0 0 1 17.3 8.7l1.5 4.7a14 14 0 0 1-8.6 17.3 13.5 13.5 0 0 1-17.3-8.6"/><g class="c11"><path class="c4" d="M30.6 226.7 25 209.5a13.4 13.4 0 0 1 8.7-17.3 13.7 13.7 0 0 1 17.2 8.6l9.2 27.5q-.2.4 0 .7.4 0 .3.4a14 14 0 0 1-8.6 17.3 31.5 31.5 0 0 0-20.3 39.7 31.3 31.3 0 0 0 40 19.6 31 31 0 0 0 20.6-23 14 14 0 0 1 16.4-10.8 13.6 13.6 0 0 1 10.4 16.3A59 59 0 0 1 80.2 332a59 59 0 0 1-74.5-37 58.6 58.6 0 0 1 25-68.3m-19.3-58-1.6-4.8a13.4 13.4 0 0 1 8.7-17.3 13.7 13.7 0 0 1 17.3 8.7l1.5 4.7a14 14 0 0 1-8.6 17.3 13.5 13.5 0 0 1-17.3-8.6"/></g></g><g id="C1" data-name="C1"><path class="c3" d="M144.3 118a3 3 0 0 1-1.3 2.5l-2.2 1.3q.2-4.3 0-8.6 0-5-.7-10l.2 10-.1 8.9-2.3 1v-12.3h-.1l-.3 9-.2 3.5-1.6.5q-.6 0-1 .3v-6l-.3-9.6q0-.1-.1 0l-.2 9.6-.1 6.2a38 38 0 0 1-14.4.3 59 59 0 0 1-8.2-2l-4-1.4v-2.9l.2-6.4-.6 6.4-.2 2.7-1.6-.7q.3-6 .3-12 0-.3 0 0-.7 5.8-1 11.8l-1-.5c-.8-.8.3-16.6.5-20.3.3-7 2-20.9 3.8-27.5 1.4-5.7 4.4-13.9 18.6-13.6 10.4.2 15.2 11 16 17.3.6 3.2 2 40.7 1.9 42.5"/><path class="c12" d="M114 113.7c-3.9 23.5-5.1 47.7-2.5 52.4 4 7.2 33.4 24.8 43.5 28.4 3.3 1.2 13.3-20.6 11.3-23.8S132 151 130.4 149.4c-.8-1-3.8-20.9-6.6-34.5-2.6-12.6-8.6-8.4-9.8-1.2"/><path class="c6" d="m143.6 190.4 13-27.5S134 150 131.3 148.2c-1.1-.8-5-25.4-7.1-36.1-1.4-7-7.6-11.1-11.4 2.3-2.2 7.8-7.2 46.3-2.6 53.2 3.5 5.5 33.3 22.8 33.3 22.8"/><path class="c3" d="M137.4 185c.6-2.1 4.6-10.3 5.6-12.3l6.3-12q.2-.2.2 0l-5.7 12.4c-1 2-5 10-6.3 11.9"/><path d="m113.6 112.2-.3 1-.4 1.1-1.3 6.5-.2 1.6-.2 1-.3 2.3-.1.4-.4 2.6-.2 2-.3 2v1a196 196 0 0 0-1.3 14.9v2l-.1 2c-.1 6.9.3 12.6 1.8 14.8 2.4 3.7 16.9 12.9 26 18.4l-15-79.6-.4-.3a3 3 0 0 0-2.6-.3l-1.2.7-.8.7-.7 1a20 20 0 0 0-2 4.2" opacity=".1" fill="#020100"/><path class="c12" d="M208 419c-2.6 1-76 .3-78.8-1.5-1.1-.7-1.6-11.4-1.9-24.4 0-2.8-5.6-47.9-5.6-47.9l49.1.3 3.9 48s28 12.7 30.8 15 5.1 9.7 2.5 10.6"/><path class="c3" d="M208 419c-2.6 1-76 .3-78.8-1.5a51 51 0 0 1-1.6-15.5 609 609 0 0 0 69 5.9c6-.8-7.8-7.8-10.3-9a218 218 0 0 1 19.2 9.7c2.9 2.2 5.1 9.6 2.5 10.5"/><path class="c7" d="M70.6 146.5s-12.9 18.7-5.8 39c12 34.5 42.7 73.5 43.6 78 2.2 10.4 14 118 14 118l55-.3s-9-91.3-18.4-121.4c-5.1-16.5-34.2-61.6-46.7-83.6-1.1-2 1.5-10.5 1.5-10.5Z"/><path class="c3" d="M171.9 371.6c-8.6-.2-34.4-1-45.7 0q-.1 0 0 .1c3.9.6 37.1.2 45.6 0a.1.1 0 1 0 0-.1M61.4 172l11.3 17.6c5.7 8.7 7.5 11.7 11.2 17.6q11 17.7 21.5 35.7a108 108 0 0 1 8.7 17.4A106 106 0 0 1 119 279q1.5 9.6 2.4 19.2l2 20.6 4.2 42 .5 5.2q-.2.5-.5 0-2.2-20.8-4.2-41.8l-2.1-20.8q-1-9.8-2.2-19.4a126 126 0 0 0-4-18.8 90 90 0 0 0-8-18.2q-10.2-18-21-35.4c-10.8-17.4-14.5-23.6-22-35.2zq0-.2.2-.1"/><path class="c12" d="M74.2 419.4c-2.7-.2-72.2-29.3-74.1-32l-.1-.6c0-2.4 33.3-62.7 33.3-62.7l45.4 18.7L53 383.1s21.2 22.4 23 25.6 1 11-1.8 10.7"/><path class="c12" d="M75.9 408.7c1.8 3.2 1 11-1.7 10.7S2 390.1.1 387.4v-.6c0-.7 3.5-7.7 8.3-16.7 9.8-18.6 24.9-46 24.9-46l45.4 18.7L53 383l11.6 12.5A165 165 0 0 1 76 408.8"/><path class="c3" d="M74.2 419.4c-2.7-.2-72.2-29.3-74.1-32v-.6c0-.7 3.5-7.7 8.3-16.7 12 12.6 59.3 35.6 60.9 35s-4.3-8.8-4.7-9.4c5.3 5.7 10.4 11.5 11.3 13 1.8 3.2 1 11-1.7 10.7"/><path class="c7" d="m59.7 376.8-47.2-22.3s60.8-91.3 61.4-98.3c.5-6.1-26.7-60-27.6-75.5A47 47 0 0 1 62.6 143l51.2 22.7s-4.5 9.2-13.3 14c0 0 26.3 62.2 24.5 81.1s-65.3 116-65.3 116"/><path class="c3" d="M62.3 366c-6.5-3.3-4.6-2.5-11.2-5.7a533 533 0 0 0-27.7-13v.1c2.7 2 24 12 27.3 13.6l11.5 5.2a.1.1 0 0 0 0-.2m46-185.8a100 100 0 0 0-16.7 2.7v.3q8.5-1 16.8-2.3a.3.3 0 0 0-.1-.7"/><path class="c3" d="m102.3 177.1-1.8 2.6a6 6 0 0 0-1 2.2q0 .2.3.2a8 8 0 0 0 1.7-2l1.7-2.4c.3-.5-.5-1.1-.9-.6"/><path class="c3" d="m113.4 162.3-.2-.1a73 73 0 0 1-3.6 8.1c-.7 1.3-4.6 8-7 6.5q-.7-.4-.4-1.3l1.2-2 2.3-4.3a36 36 0 0 0 3-8.4q0-.2-.2 0a70 70 0 0 1-5.1 11.2c-1 1.7-3.2 4.1-1 5.2s5.5-3 6.3-4.1a38 38 0 0 0 4.7-10.8m-12.1 19.4 5.1 12a333 333 0 0 1 12.9 36q1.8 6.2 3.2 12.4a89 89 0 0 1 2.3 12.5 33 33 0 0 1-1.2 12.5c-1.3 4.2-8.3 18-10.2 21.9-1.2 2.4-1.6 2-1 .8 1.6-3.4 11.3-23.9 11-32.6a64 64 0 0 0-1.7-12.4 288 288 0 0 0-10.8-36.4l-4.8-13.2-5-13.4a.1.1 0 0 1 .2 0m-38.6-13.7c.9-.3 2.1.3 3 .4l3.7.5 3.6-.1a8 8 0 0 0 3.4-.9 17 17 0 0 0 4.5-4.6 27 27 0 0 0 3.5-6l.2.1-1.2 3.6-1.8 3.3c-1.2 1.9-2.5 4-4.6 5s-4.8 1.1-7.2 1l-4-.6c-1-.2-2.7-.4-3.3-1.3a.3.3 0 0 1 .2-.4"/><path class="c3" d="M26.6 346q12.9-19 25.2-38.1T76.3 269c1.9-3.2 4.1-6.3 5.4-9.7a17 17 0 0 0-.5-11.1 187 187 0 0 0-7.6-20l-9-19.4c-3-6.4-6.3-12.8-8.5-19.5-2.2-6.4-3-13-1.2-19.7s5.6-12.4 9.5-17.8l3.1-4.3q.2-.2.2.1A76 76 0 0 0 56.6 166a32 32 0 0 0-2.2 10.4 34 34 0 0 0 1.5 10.6c2 6.7 5.2 13.1 8.1 19.4s6.2 13 9 19.4a209 209 0 0 1 8 20c1 3 2.1 6.2 2 9.5-.1 3.5-1.9 6.7-3.7 9.7q-11.8 19.4-24 38.4c-12.2 19-16.6 25.4-25.2 38l-3.2 4.8q-.3 0-.3-.3"/><path class="c6" d="m113.8 165.7 4.3-21.8s7.7-2.7 7.6-12.6c0-4.6-2.2-22.4-7.4-29.4-4.8-6.6-12.5-5-17.2-2.7-9.1 4.5-22.1 17-38.5 43.8Z"/><path class="c3" d="M105.7 136.5a33 33 0 0 1 6 3 31 31 0 0 1 4.2 3.2l1.5.9-1.5-.3-1.5-.8-2.9-2-5.9-3.8v-.2m-5.9 1.4a34 34 0 0 1 5.4 1l2.6.9 1.3.5 1.3.7q-.7 0-1.3-.3l-1.4-.3-2.6-.8-5.4-1.5v-.2"/><path class="c12" d="M94.6 105c-13.4 14.2-32.9 39.6-31.5 45.7a105 105 0 0 0 23 40.1c3.8 3.9 25.3-15.3 22-18.9a350 350 0 0 1-19-26.3c-.8-1.3 8.9-20.8 13.4-33.8 4.8-14.1-1.3-13.7-7.9-6.8"/><path class="c12" d="M116 188.2q-.8-2.9 3.1-.2c4 2.7 12 11.8 15.1 8.3s-10-17.3-14.8-20-13.5-5.8-13.5-5.8c2 3.2 6.1 11.4 10.1 17.7"/><path fill="#c7c7c7" d="M115.2 208.6 109 202l49.6-46.7 6.3 6.7z"/><path class="c3" d="m89.8 216.7 9.5 10.1 27.3-25.7-9.5-10.1z"/><path class="c12" d="M138.8 183.2c.6-3.6 4.5-.8 4.5-.8s-4.6-5.3-2.6-8.8 6.6.2 7 .4c-.3-.3-4.4-5.3-2-8.6s6.5 1 6.8 1.2c-.2-.3-2-4.8.4-7 4.2-3.5 10.5 9 14.7 10.5l6.8-4.6a11 11 0 0 0-1.4 6c.1 3.1.2 5.2-.6 7a4 4 0 0 1-4.1 2.3s2 3.3.1 6c-1 1.3-4 1-4 1s1.6 2.7-.2 5c-1.4 1.8-4.2 1.2-4.2 1.2s.2 3.3-1.8 4.6c-4.1 2.8-20.7-7.7-19.4-15.4"/><path d="m169.3 169.3 5-3.6.7-.3c7.4-2.8 16 2.4 11.6 5.8-3.5 2.7-10.3.2-13.5 3.3Z" fill="#ad6359"/><path class="c3" d="M159.5 194a34 34 0 0 1-16.4-11.8q0-.4.3-.3a69 69 0 0 0 16.1 12m5-5.9a32 32 0 0 1-17.1-14q-.2-.4.1-.3a57 57 0 0 0 17 14.2M152.4 166a44 44 0 0 0 15.5 15c-3.6-1-7.3-4-10-6.4a20 20 0 0 1-5.8-8.4q0-.2.3-.1"/><path class="c4" d="M151.9 111.7a50.3 50.3 0 1 1 8.4 37.5 50 50 0 0 1-8.5-37.5" opacity=".4"/><path class="c7" d="M143.5 110.3a58.7 58.7 0 1 1 47.8 68 59 59 0 0 1-47.8-68m6.6 1.2a52 52 0 1 0 60.2-42.3 52 52 0 0 0-60.2 42.3"/><path class="c7" d="M215.3 172.3a54 54 0 0 0 17-8 53.4 53.4 0 1 0-17 8m-22.6-2.5a50.3 50.3 0 1 1 37.5-8.4 50 50 0 0 1-37.5 8.4m22.6 2.5a54 54 0 0 0 17-8 53.4 53.4 0 1 0-17 8m-22.6-2.5a50.3 50.3 0 1 1 37.5-8.4 50 50 0 0 1-37.5 8.4m24.4 9a60.5 60.5 0 1 0-26.1 1.1 61 61 0 0 0 26-1.1m-25.5-2.3a57 57 0 1 1 24.6-1.1 57 57 0 0 1-24.6 1m40.6-12.2a53.4 53.4 0 1 0-16.9 8 54 54 0 0 0 17-8m-39.5 5.5a50.3 50.3 0 1 1 37.5-8.4 50 50 0 0 1-37.5 8.4"/><path d="M179.3 85.2a39 39 0 0 1 14.9-5.8 41 41 0 0 1 8.1-.7 44 44 0 0 1 8.2 1 40 40 0 0 1 15 7.2 44 44 0 0 1 11 12 80 80 0 0 0-12.5-9.8 48 48 0 0 0-6.9-3.6 41 41 0 0 0-7.3-2.4 50 50 0 0 0-15.2-1.1 65 65 0 0 0-15.3 3.2m31.4 73.8a38 38 0 0 1-15.9 1.6 41 41 0 0 1-8-1.6 43 43 0 0 1-7.6-3.3 40 40 0 0 1-12.5-10.9 45 45 0 0 1-7.2-14.7 79 79 0 0 0 9.3 13 49 49 0 0 0 5.6 5.4 41 41 0 0 0 6.4 4.3 49 49 0 0 0 14.4 5.2 65 65 0 0 0 15.5 1" fill="#ebebeb" opacity=".3"/><path class="c12" d="M84.2 188c6 8.8 13 20 24 25a6 6 0 0 0 3.8.6c4.8 2.3 7.4.7 7.4.7 5.1.8 7.5-1.1 7.5-1.1s5.8 2.7 8-.5c2.5-3.6-6-6.7-9.7-11.2-8.3-10.5-17.3-27.7-19.4-31Z"/><path class="c3" d="M108.8 196.6a84 84 0 0 0 7.8 8.8 86 86 0 0 0 10.3 7.6.1.1 0 0 1 0 .2 46 46 0 0 1-18.3-16.5q0-.2.2 0m-7.1 4c2.6 2.8 7.3 7.8 17.7 13.5a41 41 0 0 1-17.8-13.4q-.2-.3.1 0M98 203c4.6 4.6 8.1 7 14 10.5-7-3.3-9.3-5.3-14.1-10.4q-.3-.3.1-.1"/><path class="c6" d="m79.3 190.3 28-21.8-16.4-22.9c4.5-10.3 12-30.8 14-38.5 2.4-9-2-10.5-9-4.3-16.1 14.4-34 40.7-34.7 46-1 7.7 18.1 41.5 18.1 41.5"/><path class="c3" d="M78.4 181c1.4-1.7 8.5-7.5 10.3-9s9.2-6.8 11-8.3q.3 0 .2.1l-10.6 9a152 152 0 0 1-11 8.1m22.8-60.2c-2.6 8-6.3 16.2-9.3 24l-.4 1v-.1c3.5 5.7 8.1 11.6 12 17.2l4 5.6-.8.6.7-.7-4.2-5.3c-4.2-5.5-8.9-11.3-12.5-17.1v-.5l1-2.7c2.9-7 6.6-15 9.7-22Z"/><path class="c3" d="M101.4 122.4a9 9 0 0 1-2.2 3.2z"/><path class="c12" d="M102.8 98.4s7.4 18 14.5 18.8c5.3.6 4.5-10.3 4.5-10.3s-5-14.4-19-8.5"/><path class="c12" d="M110 99.6c-.2 1.2 2.2 10.1 7.4 11.4 2.8.6 4.7-8 4.7-8l.4-.5 5.3-8.2-7.9-10.7-1.1-1.5-3 5.3-.3.4-.2.5-.8 1.3-.5 1-.6 1a62 62 0 0 0-3.4 8"/><path class="c3" d="M115.8 87.4a20 20 0 0 0 6.7 15l5.4-8-8-10.8-1.1-1.5z"/><path class="c12" d="M144.2 79c2.6 17-7.2 20.4-11 21-3.2.5-14.6 1.8-19-14.8S117 62 124.6 60.4 141.8 62 144.3 79"/><path class="c3" d="M114.4 85c3.3.5 4.3-7 4.3-7s14-2 15.5-13.3a19 19 0 0 0 9.5 10.8s-.2-12.5-10-15.2c0 0-12.2-4.8-19.3 4.7s-2.2 19.7 0 20"/><path class="c3" d="M134.3 63.9a12 12 0 0 1-.7 5.2 13 13 0 0 1-2.8 4.5l-1 .9-.5.5-.6.3-1 .8-1.2.6-.6.2-.7.3-1.2.4-2.6.5 2.5-.9 1.1-.5.6-.3.6-.3 1-.6q.7-.3 1-.8l.6-.4.4-.4 1-.9a16 16 0 0 0 4-9.1Z"/><path class="c12" d="M117.9 84.4s-4.1-5-6.4-3.6 1 9 3.8 10a3 3 0 0 0 3.8-1.8Z"/><path class="c3" d="M112.5 83q2.9 1.4 4 4.4a1.6 1.6 0 0 0-2.4-.3v.1a2 2 0 0 1 2 .5l1 1.6q.4.1.4-.2c0-2.6-2.3-6-5-6.1m29.5-3.4-1.2-.1a2 2 0 0 1-1.2-.4v-.8a2 2 0 0 1 1.4-.4 2 2 0 0 1 1.5.6.7.7 0 0 1-.6 1.1m-11.2-1.4q.5 0 1.1-.3l1-.7v-.7a2 2 0 0 0-1.6-.2 2 2 0 0 0-1.2 1 .7.7 0 0 0 .7 1m2.4 3.4c0 1.2 0 2.6-1 3v.1c1.3-.2 1.3-2 1-3.1"/><path class="c3" d="M132 80.6c-2 0-1.7 3.8 0 3.7s1.5-3.8 0-3.7"/><path class="c3" d="m131.2 80.8-1 .7c-.6.3-.8-.3-1.1-.7h-.1q0 1.3 1.1 1.6c1.1.3 1.2-.6 1.4-1.4q0-.2-.3-.2m8.4.5c0 1.2.2 2.6 1.3 3-1.3-.1-1.6-2-1.4-3"/><path class="c3" d="M140.7 80c1.8-.2 2 3.6.3 3.8s-2-3.6-.3-3.8"/><path class="c3" d="m141.4 80.2 1 .5q.8 0 1.2-.8.2 1.2-1 1.7c-1.1.5-1.2-.5-1.4-1.2q0-.2.2-.2m-9 11.4q.3.6 1 .7l1.2-.2a2 2 0 0 1-1.5.6 1 1 0 0 1-1-1zm5.8-5.2.2 2.6a18 18 0 0 0-4.8.8q-.6 0 0-.5a7 7 0 0 1 4-1c0-.3-.5-2.7-.3-2.8l1.9.4c-.5-3.7-1.5-7.3-2-11h.3a61 61 0 0 1 2.6 11.7c.1.5-1.6 0-2-.2"/><path class="c3" d="M136.4 89.1s-.8 2-2 2.3c-1.4.2-2-1.6-.3-2.3a4 4 0 0 1 2.3 0"/><path class="c9" d="M135.8 90.3a2 2 0 0 1-1.4 1 1 1 0 0 1-1.4-.8c1.5-.9 2.4-.6 2.8-.2"/></g></g></svg>