<svg viewBox="0 0 24 24" fill="none" xmlns="http://www.w3.org/2000/svg"><path fill-rule="evenodd" clip-rule="evenodd" d="M13 7a1 1 0 1 0-2 0v.1q-2.5.6-2.6 2.9.1 2.3 2.6 2.9v1.9l-.8-.5a1 1 0 0 0-1.4 1.4l.9.7 1.3.5v.1a1 1 0 1 0 2 0v-.1q2.5-.6 2.6-2.9-.1-2.3-2.6-2.9v-2l.7.5a1 1 0 0 0 1.6-1.2l-.2-.3-.7-.5q-.5-.3-1.4-.5zM2 12a10 10 0 1 1 20 0 10 10 0 0 1-20 0" fill="#94a3b8"/><path fill-rule="evenodd" clip-rule="evenodd" d="M13.1 13.2v1.4h.1q.6-.3.5-.7.1-.3-.5-.8M11 9.3q-.6.3-.5.7-.1.3.5.7h.1z" fill="#94a3b8"/></svg>