<svg viewBox="0 0 24 24" fill="none" xmlns="http://www.w3.org/2000/svg"><path fill-rule="evenodd" clip-rule="evenodd" d="M7.3 2.4Q9 2 12 2t4.7.4q2 .4 3.3 1.6 1.2 1.4 1.6 3.3T22 12t-.4 4.7A6 6 0 0 1 20 20q-1.3 1.2-3.3 1.6-1.8.4-4.7.4t-4.7-.4A6 6 0 0 1 4 20q-1.2-1.3-1.6-3.3Q2 15 2 12t.4-4.7Q2.8 5.3 4 4q1.4-1.2 3.3-1.6M7.5 7h.2q.7-.3 2.5.7a8 8 0 0 1 3.6 0q1.8-1 2.5-.8h.1a1 1 0 0 1 .7.7 5 5 0 0 1 .2 2.5v.2q.7 1.1.7 2.5 0 2.9-1.4 4.2a5 5 0 0 1-3 1.2q-1.5.3-3.2 0a5 5 0 0 1-3-1.3Q6 15.7 6 13a5 5 0 0 1 .7-2.7A5 5 0 0 1 7 7.7q.2-.5.6-.6" fill="#1f2328"/></svg>