<svg viewBox="0 0 24 24" fill="none" xmlns="http://www.w3.org/2000/svg"><path fill="#fff" d="M0 0h24v24H0z"/><path d="M11 20.8q-.1 1-1 1A10 10 0 0 1 2 13q0-1 1-1h3q1 0 1 1a3 3 0 0 0 3 3q1 0 1 1zm6-1.8c0 .7.8 1.2 1.4.7a10 10 0 0 0 2-2.4q.5-1.1-.8-1.3H18a1 1 0 0 0-1 1zM12 2q4 .1 6.6 2.5c.7.6.2 1.5-.6 1.5h-.1A3 3 0 0 0 15 8.9q0 .5-.5.7a1 1 0 0 1-1 0L13 9a3 3 0 0 0-2.9-3H10a1 1 0 0 1-1-1V3.2q0-.6.7-1z" fill="#7c3aed"/><path d="M3.4 10q-1-.1-.9-1.2a10 10 0 0 1 3.1-4.5c.6-.5 1.4 0 1.4.7a3 3 0 0 0 3 3h.1q.8 0 .9.9 0 1.6 1.6 2.5a3 3 0 0 0 2.7 0h.1Q17 10.5 17 9q0-.8.9-.9h2.6q.6 0 1 .6a10 10 0 0 1 .4 4.6q0 .8-1 .8H18a3 3 0 0 0-3 3v3.8q0 .6-.7 1H14q-1 0-1.1-1V17a3 3 0 0 0-3-3 1 1 0 0 1-1-1 3 3 0 0 0-3-3z" fill="#7c3aed"/></svg>